<?xml version="1.0" encoding="utf-8"?>
<!-- Generator: Adobe Illustrator 19.0.0, SVG Export Plug-In . SVG Version: 6.00 Build 0)  -->
<svg version="1.1" id="Layer_1" xmlns="http://www.w3.org/2000/svg" xmlns:xlink="http://www.w3.org/1999/xlink" x="0px" y="0px"
	 viewBox="0 0 1000 400" style="enable-background:new 0 0 1000 400;" xml:space="preserve">
<style type="text/css">
	.st0{fill:#FFFFFF;}
</style>
<g id="XMLID_2_">
	<path id="XMLID_3_" d="M312.3,133.4v119.1h-20.4V210c0-6.9-2.4-12.7-7.1-17.3c-4.8-4.8-10.5-7.1-17.2-7.1c-6.8,0-12.6,2.4-17.3,7.1
		c-4.8,4.8-7.1,10.5-7.1,17.3c0,6.7,2.4,12.4,7.1,17.2c2.3,2.4,4.9,4.2,7.9,5.4c3,1.2,6.1,1.8,9.4,1.8c3.3,0,22.5-2.5,24.3-22.6
		v34.1c-9.5,6.6-12.5,8.9-26,8.9c-6.2,0-12-1.2-17.2-3.5c-5.3-2.3-9.8-5.5-13.7-9.6c-3.9-4.1-6.9-8.8-9-14.3
		c-2.2-5.4-3.2-11.2-3.2-17.3c0-6.2,1.1-12.1,3.2-17.5c2.1-5.4,5.2-10.2,9-14.3c3.8-4.1,8.4-7.3,13.7-9.6c5.3-2.3,11-3.5,17.2-3.5
		c5.4,0,10.3,0.8,14.6,2.5c4.3,1.7,8.1,3.9,11.4,6.5v-40.8H312.3z"/>
	<path id="XMLID_5_" d="M420.3,167.6l-39.4,84.9l-5.3,11.5c-3.2,6.9-7.9,12.4-14.3,16.5c-6.3,4.1-13.4,6.1-21.1,6.1h-9l5.1-20.4h4.9
		c3.3,0,6.3-0.9,9.2-2.7c2.8-1.8,4.9-4.2,6.3-7.3l1.7-3.7l-39.4-84.9h22.4l28.2,60.8l28.2-60.8H420.3z"/>
	<path id="XMLID_7_" d="M481.1,220.2h-44.5c1.1,2.6,2.8,4.9,4.9,7c2.4,2.4,5,4.2,8,5.4c2.9,1.2,6.1,1.8,9.3,1.8
		c4.6,0,8.8-1.1,12.4-3.2l21.2,8.5c-4.1,4.8-9,8.5-14.8,11.1c-5.8,2.7-12.1,4-18.9,4c-6.2,0-12.1-1.2-17.5-3.5
		c-5.4-2.3-10.2-5.5-14.3-9.6c-4.1-4.1-7.3-8.8-9.6-14.3c-2.3-5.4-3.5-11.2-3.5-17.3c0-6.2,1.2-12.1,3.5-17.5
		c2.3-5.4,5.5-10.2,9.6-14.3c4.1-4.1,8.8-7.3,14.3-9.6c5.4-2.3,11.3-3.5,17.5-3.5c6.2,0,12.1,1.2,17.5,3.5
		c5.4,2.3,10.2,5.5,14.3,9.6c4.1,4.1,7.3,8.8,9.6,14.3c2.3,5.4,3.5,11.3,3.5,17.5c0,3.6-0.4,7-1.2,10.2H481.1z M458.9,185.6
		c-6.6,0-12.3,2.4-17.3,7.1c-2.2,2.2-3.8,4.5-4.9,7.1h44.5c-1.1-2.6-2.8-5-4.9-7.1C471.4,188,465.7,185.6,458.9,185.6z"/>
	<path id="XMLID_10_" d="M587.1,241.6c-4.1,4.1-8.8,7.3-14.3,9.6c-5.4,2.3-11.3,3.5-17.5,3.5c-6.2,0-12.1-1.2-17.5-3.5
		c-5.4-2.3-10.2-5.5-14.3-9.6c-4.1-4.1-7.3-8.8-9.6-14.3c-2.3-5.4-3.5-11.2-3.5-17.3c0-6.2,1.2-12.1,3.5-17.5
		c2.3-5.4,5.5-10.2,9.6-14.3c4.1-4.1,8.8-7.3,14.3-9.6c5.4-2.3,11.3-3.5,17.5-3.5c6.2,0,12.1,1.2,17.5,3.5
		c5.4,2.3,10.2,5.5,14.3,9.6l-14.4,14.4c-4.8-4.8-10.5-7.1-17.3-7.1c-6.6,0-12.3,2.4-17.3,7.1c-4.8,4.8-7.1,10.5-7.1,17.3
		c0,6.7,2.4,12.4,7.1,17.2c2.4,2.4,5,4.2,8,5.4c2.9,1.2,6.1,1.8,9.3,1.8c6.9,0,12.7-2.4,17.3-7.1L587.1,241.6z"/>
	<path id="XMLID_12_" d="M654,220.2h-44.5c1.1,2.6,2.8,4.9,4.9,7c2.4,2.4,5,4.2,8,5.4c2.9,1.2,6.1,1.8,9.3,1.8
		c4.6,0,8.8-1.1,12.4-3.2l21.2,8.5c-4.1,4.8-9,8.5-14.8,11.1c-5.8,2.7-12.1,4-18.9,4c-6.2,0-12.1-1.2-17.5-3.5
		c-5.4-2.3-10.2-5.5-14.3-9.6c-4.1-4.1-7.3-8.8-9.6-14.3c-2.3-5.4-3.5-11.2-3.5-17.3c0-6.2,1.2-12.1,3.5-17.5
		c2.3-5.4,5.5-10.2,9.6-14.3c4.1-4.1,8.8-7.3,14.3-9.6c5.4-2.3,11.3-3.5,17.5-3.5c6.2,0,12.1,1.2,17.5,3.5
		c5.4,2.3,10.2,5.5,14.3,9.6c4.1,4.1,7.3,8.8,9.6,14.3c2.3,5.4,3.5,11.3,3.5,17.5c0,3.6-0.4,7-1.2,10.2H654z M631.8,185.6
		c-6.6,0-12.3,2.4-17.3,7.1c-2.2,2.2-3.8,4.5-4.9,7.1H654c-1.1-2.6-2.8-5-4.9-7.1C644.3,188,638.6,185.6,631.8,185.6z"/>
	<path id="XMLID_15_" d="M728.8,165.2c5.5,0,10.6,1,15.1,3.1c4.5,2.1,8.4,5,11.6,8.7c3.2,3.7,5.7,8,7.5,12.8
		c1.8,4.9,2.6,10.1,2.6,15.6v47h-20.4v-47c0-5.7-2-10.4-5.9-14.1c-3.8-3.8-8.5-5.8-13.9-5.8c-5.6,0-10.3,1.9-14.1,5.8
		c-3.8,3.9-5.8,8.6-5.8,14.1v47h-20.4v-84.9h20.4v6.5c3.1-2.6,6.5-4.7,10.4-6.4C719.7,166,724,165.2,728.8,165.2z"/>
	<path id="XMLID_17_" d="M815.5,252.5H802c-3.9,0-7.5-0.7-10.9-2.2c-3.4-1.5-6.3-3.5-8.8-6c-2.5-2.5-4.5-5.5-5.9-8.9
		c-1.5-3.4-2.2-7-2.2-10.9v-79.2h20.4v32.4h16.8l0.2,20.4h-17v26.3c0,2.2,0.7,4,2.2,5.4c1.5,1.5,3.2,2.2,5.3,2.2h13.6L815.5,252.5z"
		/>
	<path id="XMLID_19_" d="M886,220.2h-44.5c1.1,2.6,2.8,4.9,4.9,7c2.4,2.4,5,4.2,8,5.4c2.9,1.2,6.1,1.8,9.3,1.8
		c4.6,0,8.8-1.1,12.4-3.2l21.2,8.5c-4.1,4.8-9,8.5-14.8,11.1c-5.8,2.7-12.1,4-18.9,4c-6.2,0-12.1-1.2-17.5-3.5
		c-5.4-2.3-10.2-5.5-14.3-9.6c-4.1-4.1-7.3-8.8-9.6-14.3c-2.3-5.4-3.5-11.2-3.5-17.3c0-6.2,1.2-12.1,3.5-17.5
		c2.3-5.4,5.5-10.2,9.6-14.3c4.1-4.1,8.8-7.3,14.3-9.6c5.4-2.3,11.3-3.5,17.5-3.5c6.2,0,12.1,1.2,17.5,3.5
		c5.4,2.3,10.2,5.5,14.3,9.6c4.1,4.1,7.3,8.8,9.6,14.3c2.3,5.4,3.5,11.3,3.5,17.5c0,3.6-0.4,7-1.2,10.2H886z M863.8,185.6
		c-6.6,0-12.3,2.4-17.3,7.1c-2.2,2.2-3.8,4.5-4.9,7.1H886c-1.1-2.6-2.8-5-4.9-7.1C876.4,188,870.6,185.6,863.8,185.6z"/>
	<path id="XMLID_22_" d="M949.1,167.6c4-1.7,8.6-2.5,13.7-2.5v20.4c-6.8,0-12.6,2.4-17.3,7.1c-4.8,5-7.1,10.8-7.1,17.3v42.6H918
		v-42.6v-42.5h20.4v6.6C941.5,171.4,945.1,169.3,949.1,167.6z"/>
</g>
<path id="XMLID_1_" d="M195.9,284.8H50c-6.6,0-12-5.4-12-12V126.9c0-6.6,5.4-12,12-12h145.9c6.6,0,12,5.4,12,12v145.9
	C207.9,279.4,202.5,284.8,195.9,284.8z"/>
<circle id="XMLID_24_" class="st0" cx="122.9" cy="199.8" r="16"/>
<circle id="XMLID_25_" class="st0" cx="67.7" cy="144.3" r="16"/>
<circle id="XMLID_26_" class="st0" cx="67.7" cy="255.6" r="16"/>
<circle id="XMLID_27_" class="st0" cx="177.7" cy="255.6" r="16"/>
<circle id="XMLID_28_" class="st0" cx="177.7" cy="144.3" r="16"/>
</svg>
