<?xml version="1.0" standalone="no"?>
<!DOCTYPE svg PUBLIC "-//W3C//DTD SVG 20010904//EN"
 "http://www.w3.org/TR/2001/REC-SVG-20010904/DTD/svg10.dtd">
<svg version="1.0" xmlns="http://www.w3.org/2000/svg"
 width="260.000000pt" height="260.000000pt" viewBox="0 0 260.000000 260.000000"
 preserveAspectRatio="xMidYMid meet">
<metadata>
Created by potrace 1.11, written by Peter Selinger 2001-2013
</metadata>
<g transform="translate(0.000000,260.000000) scale(0.100000,-0.100000)"
fill="#000000" stroke="none">
<path d="M88 2580 c-20 -11 -47 -34 -60 -52 l-23 -33 0 -1190 0 -1190 24 -34
c14 -19 46 -44 75 -57 l51 -24 1140 0 1140 0 51 24 c53 25 83 58 102 115 17
49 17 2283 0 2332 -17 52 -46 88 -88 109 -38 20 -63 20 -1207 20 -1136 -1
-1169 -1 -1205 -20z m370 -156 c76 -31 132 -111 132 -189 0 -78 -56 -158 -132
-189 -159 -67 -329 103 -262 262 44 105 162 158 262 116z m1830 0 c140 -58
174 -234 66 -336 -104 -97 -264 -64 -325 67 -74 159 97 337 259 269z m-920
-930 c140 -58 174 -234 66 -336 -104 -97 -264 -64 -325 67 -74 159 97 337 259
269z m-883 -897 c21 -12 53 -42 70 -65 26 -38 30 -52 30 -112 0 -60 -4 -74
-30 -112 -43 -61 -95 -88 -170 -88 -75 0 -127 27 -170 88 -26 38 -30 52 -30
112 0 60 4 74 30 112 43 61 95 88 170 88 44 0 71 -6 100 -23z m1830 0 c21 -12
53 -42 70 -65 26 -38 30 -52 30 -112 0 -60 -4 -74 -30 -112 -43 -61 -95 -88
-170 -88 -75 0 -127 27 -170 88 -26 38 -30 52 -30 112 0 60 4 74 30 112 43 61
95 88 170 88 44 0 71 -6 100 -23z"/>
</g>
</svg>
