<?xml version="1.0" encoding="utf-8"?>
<!-- Generator: Adobe Illustrator 19.0.0, SVG Export Plug-In . SVG Version: 6.00 Build 0)  -->
<svg version="1.1" id="Layer_1" xmlns="http://www.w3.org/2000/svg" xmlns:xlink="http://www.w3.org/1999/xlink" x="0px" y="0px"
	 viewBox="0 0 400 400" style="enable-background:new 0 0 400 400;" xml:space="preserve">
<style type="text/css">
	.st0{fill:#FFFFFF;}
</style>
<path id="XMLID_32_" class="st0" d="M272.9,114.9H127c-6.6,0-12,5.4-12,12v145.9c0,6.6,5.4,12,12,12h145.9c6.6,0,12-5.4,12-12V126.9
	C284.9,120.3,279.5,114.9,272.9,114.9z M144.7,271.6c-8.8,0-16-7.1-16-16c0-8.8,7.1-16,16-16s16,7.1,16,16
	C160.7,264.5,153.5,271.6,144.7,271.6z M144.7,160.3c-8.8,0-16-7.1-16-16c0-8.8,7.1-16,16-16s16,7.1,16,16
	C160.7,153.1,153.5,160.3,144.7,160.3z M199.9,215.8c-8.8,0-16-7.1-16-16s7.1-16,16-16c8.8,0,16,7.1,16,16S208.7,215.8,199.9,215.8z
	 M254.7,271.6c-8.8,0-16-7.1-16-16c0-8.8,7.1-16,16-16c8.8,0,16,7.1,16,16C270.7,264.5,263.5,271.6,254.7,271.6z M254.7,160.3
	c-8.8,0-16-7.1-16-16c0-8.8,7.1-16,16-16c8.8,0,16,7.1,16,16C270.7,153.1,263.5,160.3,254.7,160.3z"/>
</svg>
